<svg xmlns="http://www.w3.org/2000/svg" xmlns:xlink="http://www.w3.org/1999/xlink" width="28" height="17" viewBox="0 0 28 17"><defs><path id="z2nya" d="M1855.842 394.764v-1.601h6.767v1.6zm-4.504 6.563c.436.644.655 1.425.655 2.344 0 .95-.247 1.8-.747 2.553a4.508 4.508 0 0 1-1.189 1.256c-.535.393-3.057 1.52-3.057 1.52h-9v-17.001h8c2.045.032 3.832 1.095 4.688 2.204.514.68.769 1.496.769 2.443 0 .979-.258 1.761-.777 2.356-.289.334-.715.637-1.28.911.855.298 1.504.768 1.938 1.414zm-9.338-2.328h4c.73 0 .974-.323 1.428-.588.455-.264.682-.734.682-1.407 0-.745-.3-1.239-.903-1.477-.517-.165-1.404-.528-2.207-.528h-3zm6.452 4.443c0-.83-.356-1.406-1.069-1.714-.398-.175-.663-.722-1.383-.728h-4v5h4c.73 0 .941-.37 1.349-.56.735-.349 1.103-1.013 1.103-1.998zm16.667-2.603c.082.523.119 1.283.104 2.276h-8.763c.048 1.152.465 1.957 1.257 2.418.478.29 1.057.43 1.735.43.715 0 1.298-.172 1.746-.525.245-.187.46-.453.647-.786h3.212c-.084.68-.471 1.37-1.166 2.07-1.077 1.116-2.587 1.675-4.526 1.675-1.603 0-3.015-.472-4.24-1.41-1.222-.944-1.836-2.472-1.836-4.592 0-1.99.551-3.512 1.657-4.57 1.109-1.063 2.54-1.59 4.305-1.59 1.046 0 1.99.177 2.83.536a4.82 4.82 0 0 1 2.078 1.697c.494.683.812 1.472.96 2.37zm-4.003-1.513c-.498-.413-1.121-.621-1.865-.621-.809 0-1.433.222-1.877.658-.447.434-.725 1.026-.84 1.774h5.423c-.059-.796-.338-1.399-.84-1.81z"/></defs><g><g transform="translate(-1838 -392)"><use fill="#d4d4d4" xlink:href="#z2nya"/></g></g></svg>