<svg xmlns="http://www.w3.org/2000/svg" xmlns:xlink="http://www.w3.org/1999/xlink" width="24" height="24" viewBox="0 0 24 24"><defs><path id="fez8a" d="M1864 452v18c0 .843-.507 1.453-1.11 2.057-.604.605-1.048.942-1.89.942h-18a3.226 3.226 0 0 1-2.272-.942c-.604-.604-.728-1.214-.728-2.058v-18c0-.843.124-1.529.728-2.132.603-.604 1.43-.867 2.272-.867h18c.843 0 1.286.263 1.89.867.603.604 1.11 1.289 1.11 2.133zm-16.983 8.915c0 1.291.471 2.393 1.413 3.305.942.911 2.073 1.368 3.395 1.368 1.331 0 2.468-.457 3.41-1.368.941-.912 1.412-2.014 1.412-3.305 0-1.292-.47-2.393-1.412-3.305-.942-.912-2.079-1.368-3.41-1.368-1.322 0-2.453.456-3.395 1.368-.942.912-1.413 2.013-1.413 3.305zM1862 469v-10h-3c.208.656.285 1.457.285 2.165a6.929 6.929 0 0 1-.999 3.633 7.288 7.288 0 0 1-2.715 2.634 7.499 7.499 0 0 1-3.746.969c-2.05 0-3.803-.706-5.26-2.118-1.457-1.412-2.185-3.117-2.185-5.118 0-.708.412-1.509.62-2.165h-3v10c0-.201.185 1.937 2 2h16c1.873.062 2-2 2-2zm-.4-16.4c-.028-1.032-1.2-1.2-1.2-1.2h-3c-.302 0-.67.339-.878.553a1.05 1.05 0 0 0-.312.758v2.578c0 .302.104.558.312.766.208.208.576.144.878.144h3c.452-.104.615-.097.656-.061.215-.26.544-.862.544-1.138zm-.6 3.6c-.128.128.122-.005.056-.062a.913.913 0 0 1-.056.061z"/></defs><g><g transform="translate(-1840 -449)"><use fill="#d4d4d4" xlink:href="#fez8a"/></g></g></svg>