<?xml version="1.0" encoding="utf-8"?><svg xmlns="http://www.w3.org/2000/svg" xmlns:xlink="http://www.w3.org/1999/xlink"><symbol viewBox="0 0 9 30" id="arrow_up" xmlns="http://www.w3.org/2000/svg"><defs><path id="aa" d="M1853 274.999h-1v-27.793l-3.268 3.268-.708-.708 4.013-4.012-.044-.044.717-.717 4.296 4.296-.717.716-3.29-3.289z"/></defs><use xlink:href="#aa" transform="translate(-1848 -245)"/></symbol><symbol viewBox="0 0 28 17" id="be" xmlns="http://www.w3.org/2000/svg"><defs><path id="ba" d="M1855.842 394.764v-1.601h6.767v1.6zm-4.504 6.563c.436.644.655 1.425.655 2.344 0 .95-.247 1.8-.747 2.553a4.508 4.508 0 0 1-1.189 1.256c-.535.393-3.057 1.52-3.057 1.52h-9v-17.001h8c2.045.032 3.832 1.095 4.688 2.204.514.68.769 1.496.769 2.443 0 .979-.258 1.761-.777 2.356-.289.334-.715.637-1.28.911.855.298 1.504.768 1.938 1.414zm-9.338-2.328h4c.73 0 .974-.323 1.428-.588.455-.264.682-.734.682-1.407 0-.745-.3-1.239-.903-1.477-.517-.165-1.404-.528-2.207-.528h-3zm6.452 4.443c0-.83-.356-1.406-1.069-1.714-.398-.175-.663-.722-1.383-.728h-4v5h4c.73 0 .941-.37 1.349-.56.735-.349 1.103-1.013 1.103-1.998zm16.667-2.603c.082.523.119 1.283.104 2.276h-8.763c.048 1.152.465 1.957 1.257 2.418.478.29 1.057.43 1.735.43.715 0 1.298-.172 1.746-.525.245-.187.46-.453.647-.786h3.212c-.084.68-.471 1.37-1.166 2.07-1.077 1.116-2.587 1.675-4.526 1.675-1.603 0-3.015-.472-4.24-1.41-1.222-.944-1.836-2.472-1.836-4.592 0-1.99.551-3.512 1.657-4.57 1.109-1.063 2.54-1.59 4.305-1.59 1.046 0 1.99.177 2.83.536a4.82 4.82 0 0 1 2.078 1.697c.494.683.812 1.472.96 2.37zm-4.003-1.513c-.498-.413-1.121-.621-1.865-.621-.809 0-1.433.222-1.877.658-.447.434-.725 1.026-.84 1.774h5.423c-.059-.796-.338-1.399-.84-1.81z"/></defs><use xlink:href="#ba" transform="translate(-1838 -392)"/></symbol><symbol viewBox="0 0 22 22" id="bol" xmlns="http://www.w3.org/2000/svg"><defs><path id="ca" d="M914.999 2588c-.001 6.074-4.925 10.999-11 10.999-6.074 0-10.998-4.925-10.998-11 0-6.073 4.924-10.997 10.998-10.998 6.075 0 10.999 4.925 11 10.999zm-9.007-1.914c.193.427.385.872.574 1.337a14.164 14.164 0 0 1 2.486-.219h.008c1.094 0 2.267.129 3.508.393a8.518 8.518 0 0 0-1.83-4.893c-1.347 1.538-3.012 2.621-4.746 3.382zm-3.816-6.462c.744.953 1.834 2.512 2.96 4.692 1.605-.69 3.09-1.664 4.214-3.011a8.526 8.526 0 0 0-5.35-1.886c-.626 0-1.235.074-1.824.205zm-6.502 6.298c.191.006.42.01.686.01h.134c1.578.001 4.187-.18 6.777-.952-1.274-2.415-2.466-3.963-3.062-4.666a8.607 8.607 0 0 0-4.535 5.608zm1.773 7.599a14.656 14.656 0 0 1 2.367-2.762 13.585 13.585 0 0 1 4.83-2.849 33.976 33.976 0 0 0-.493-1.136c-3.052.964-6.064 1.108-7.79 1.12h-.001c-.378 0-.693-.008-.938-.018a2.099 2.099 0 0 0-.004.124 8.53 8.53 0 0 0 2.029 5.52zm9.599 2.499a42.305 42.305 0 0 0-1.695-6.28c-1.921.626-3.393 1.678-4.459 2.699a12.386 12.386 0 0 0-1.99 2.451 8.521 8.521 0 0 0 5.097 1.691c1.074 0 2.098-.2 3.047-.561zm5.379-6.45c-1.22-.276-2.344-.403-3.368-.403h-.025c-.617 0-1.202.045-1.76.125a44.097 44.097 0 0 1 1.584 5.766 8.577 8.577 0 0 0 3.569-5.487z"/></defs><use xlink:href="#ca" transform="translate(-893 -2577)"/></symbol><symbol viewBox="0 0 11 24" id="fb" xmlns="http://www.w3.org/2000/svg"><defs><path id="da" d="M1850 516v3l-3-.048v4.04l3 .007v12h4v-12h3s.851-1.88 1-4h-4v-3c0-.413.474-1 1-1h3v-4h-3.618c-5.125 0-4.382 4.396-4.382 5z"/></defs><use xlink:href="#da" transform="translate(-1847 -511)"/></symbol><symbol viewBox="0 0 24 24" id="inst" xmlns="http://www.w3.org/2000/svg"><defs><path id="ea" d="M1864 452v18c0 .843-.507 1.453-1.11 2.057-.604.605-1.048.942-1.89.942h-18a3.226 3.226 0 0 1-2.272-.942c-.604-.604-.728-1.214-.728-2.058v-18c0-.843.124-1.529.728-2.132.603-.604 1.43-.867 2.272-.867h18c.843 0 1.286.263 1.89.867.603.604 1.11 1.289 1.11 2.133zm-16.983 8.915c0 1.291.471 2.393 1.413 3.305.942.911 2.073 1.368 3.395 1.368 1.331 0 2.468-.457 3.41-1.368.941-.912 1.412-2.014 1.412-3.305 0-1.292-.47-2.393-1.412-3.305-.942-.912-2.079-1.368-3.41-1.368-1.322 0-2.453.456-3.395 1.368-.942.912-1.413 2.013-1.413 3.305zM1862 469v-10h-3c.208.656.285 1.457.285 2.165a6.929 6.929 0 0 1-.999 3.633 7.288 7.288 0 0 1-2.715 2.634 7.499 7.499 0 0 1-3.746.969c-2.05 0-3.803-.706-5.26-2.118-1.457-1.412-2.185-3.117-2.185-5.118 0-.708.412-1.509.62-2.165h-3v10c0-.201.185 1.937 2 2h16c1.873.062 2-2 2-2zm-.4-16.4c-.028-1.032-1.2-1.2-1.2-1.2h-3c-.302 0-.67.339-.878.553a1.05 1.05 0 0 0-.312.758v2.578c0 .302.104.558.312.766.208.208.576.144.878.144h3c.452-.104.615-.097.656-.061.215-.26.544-.862.544-1.138zm-.6 3.6c-.128.128.122-.005.056-.062a.913.913 0 0 1-.056.061z"/></defs><use xlink:href="#ea" transform="translate(-1840 -449)"/></symbol><symbol viewBox="0 0 22 17" id="mail" xmlns="http://www.w3.org/2000/svg"><defs><path id="fa" d="M1842 332h22v17h-22v-15.167l-.01-.007.01-.015zm1 16h20v-13.472l-9.127 6.547.138.098-.586.813-.412-.294-.41.294-.583-.813.133-.095-9.153-6.531zm20-14.702V333h-20v.316l10.013 7.145z"/></defs><use xlink:href="#fa" transform="translate(-1842 -332)"/></symbol><symbol viewBox="0 0 19 22" id="pint" xmlns="http://www.w3.org/2000/svg"><defs><path id="ga" d="M845.95 2589.722c1.08-1.88-.348-2.292-.572-3.653-.916-5.566 6.53-9.368 10.43-5.478 2.698 2.693.921 10.975-3.429 10.114-4.167-.822 2.04-7.414-1.285-8.708-2.703-1.053-4.138 3.216-2.856 5.337-.753 3.65-2.37 7.085-1.715 11.659 2.124-1.515 2.841-4.418 3.428-7.446 1.068.64 1.64 1.302 3.001 1.405 5.022.383 7.828-4.93 7.14-9.832-.608-4.346-5.015-6.559-9.714-6.04-3.716.41-7.42 3.362-7.573 7.586-.094 2.578.65 4.513 3.144 5.056z"/></defs><use xlink:href="#ga" transform="translate(-842 -2577)"/></symbol></svg>